<svg version="1.0" xmlns="http://www.w3.org/2000/svg" width="512.000000pt" height="512.000000pt" viewBox="0 0 512.000000 512.000000">
<g transform="translate(0.000000,512.000000) scale(0.100000,-0.100000)" fill="#eeeeee">
<path d="M2280 5109 c-464 -50 -924 -239 -1310 -538 -110 -84 -337 -312 -422
-421 -307 -398 -489 -845 -539 -1328 -15 -148 -6 -524 15 -652 45 -265 116
-495 225 -722 l51 -107 -36 -48 c-53 -69 -112 -196 -130 -283 -36 -169 -3
-382 83 -530 49 -83 180 -214 263 -263 148 -86 361 -119 530 -83 86 18 214 77
282 129 l47 36 106 -50 c241 -112 462 -181 725 -225 128 -21 505 -30 652 -15
587 61 1124 317 1544 736 209 209 339 385 471 641 150 289 241 594 274 912 17
168 7 526 -20 675 -47 265 -118 487 -226 709 l-46 96 37 48 c87 114 144 287
144 439 0 160 -63 340 -165 467 -127 161 -355 268 -570 268 -152 0 -325 -57
-439 -144 l-48 -37 -86 41 c-234 114 -485 193 -752 235 -124 20 -529 29 -660
14z m610 -264 c212 -33 409 -90 595 -171 141 -62 132 -51 100 -129 -43 -109
-58 -196 -52 -315 6 -122 30 -211 87 -316 l38 -71 -1192 -1192 -1192 -1192
-56 34 c-111 67 -275 104 -413 94 -87 -7 -205 -36 -264 -67 l-38 -19 -43 97
c-249 557 -277 1161 -79 1728 17 49 63 157 104 239 186 383 443 676 800 916
309 208 676 339 1055 379 120 12 426 4 550 -15z m1525 -125 c197 -68 326 -244
328 -450 3 -207 -128 -389 -332 -462 -78 -28 -215 -28 -293 0 -199 71 -329
249 -331 452 -3 236 168 437 413 484 46 8 156 -4 215 -24z m-360 -1160 c148
-46 336 -36 490 25 78 32 67 41 129 -100 316 -719 243 -1551 -193 -2200 -240
-357 -533 -614 -916 -800 -352 -172 -696 -246 -1080 -232 -320 12 -593 75
-887 207 l-97 43 19 38 c31 59 60 177 67 264 10 138 -27 302 -94 413 l-34 56
1192 1192 1192 1192 71 -38 c39 -21 103 -48 141 -60z m-3070 -2247 c86 -27
143 -61 205 -123 226 -226 176 -591 -103 -754 -58 -34 -173 -66 -237 -66 -162
0 -347 115 -421 262 -60 119 -72 216 -40 336 70 266 343 424 596 345z"/>
</g>
</svg>
