<svg xmlns="http://www.w3.org/2000/svg" width="1214.000000pt" height="752.000000pt" viewBox="0 0 1214.000000 752.000000">
<g
    transform="translate(0.000000,752.000000) scale(0.100000,-0.100000)"
    fill="#eeeeee"
    stroke="none">
<path d="M2540 7180 c-77 -10 -141 -41 -194 -93 -81 -81 -116 -188 -97 -293
22 -115 76 -192 173 -245 l63 -34 550 0 550 0 45 23 c66 35 129 99 161 167 24
50 29 73 29 137 0 48 -6 94 -17 120 -24 63 -81 135 -134 169 -85 54 -136 59
-629 58 -245 -1 -470 -5 -500 -9z"/>
<path d="M4674 7175 c-81 -18 -116 -37 -171 -93 -93 -95 -121 -209 -83 -334
19 -64 29 -80 84 -134 44 -43 79 -67 119 -83 57 -21 65 -21 822 -21 421 0 765
-3 764 -7 0 -5 -39 -37 -86 -73 -48 -36 -166 -144 -263 -240 -175 -172 -276
-291 -399 -462 l-63 -88 -1996 -2 -1997 -3 -47 -23 c-124 -62 -189 -160 -196
-296 -5 -102 19 -173 84 -245 55 -62 127 -98 221 -111 45 -6 706 -10 1819 -10
961 0 1749 -2 1752 -5 3 -2 -11 -53 -31 -112 -66 -201 -133 -496 -153 -680
l-7 -63 -1036 -2 -1036 -3 -67 -33 c-71 -35 -117 -81 -159 -162 -20 -38 -24
-59 -24 -140 0 -78 4 -103 23 -141 34 -70 84 -122 154 -160 l63 -34 1041 -3
1041 -2 12 -98 c29 -219 92 -486 165 -699 l25 -72 -572 -3 -572 -3 -55 -26
c-177 -84 -250 -309 -155 -474 36 -63 114 -129 178 -154 57 -21 66 -21 790
-21 l733 0 89 -122 c202 -276 409 -490 673 -697 24 -19 39 -38 35 -42 -5 -5
-666 -10 -1468 -11 l-1460 -3 -57 -27 c-209 -98 -259 -373 -99 -541 42 -45 95
-74 166 -93 41 -11 472 -14 2410 -13 2511 0 2876 5 3091 38 267 41 503 102
742 192 141 53 445 199 519 250 23 16 44 29 48 29 15 0 258 171 367 259 658
531 1088 1278 1234 2141 22 133 26 195 31 445 6 318 -2 440 -43 675 -100 572
-340 1101 -707 1557 -509 634 -1203 1056 -2002 1218 -351 71 -250 68 -2345 71
-1563 3 -1895 1 -1946 -11z m3892 -670 c636 -67 1224 -344 1663 -784 462 -462
739 -1033 812 -1671 18 -152 15 -489 -5 -645 -106 -826 -576 -1558 -1293
-2013 -151 -96 -426 -223 -605 -280 -266 -86 -483 -122 -768 -129 -265 -7
-429 7 -653 53 -724 151 -1344 570 -1752 1185 -382 574 -532 1259 -429 1957
86 582 395 1172 827 1576 476 447 1064 710 1697 759 122 10 376 5 506 -8z"/>
<path d="M517 4079 c-93 -22 -175 -89 -224 -181 -25 -47 -28 -63 -28 -148 0
-79 4 -103 24 -142 37 -75 93 -131 163 -164 l63 -29 540 0 540 0 58 29 c68 35
130 98 160 164 18 38 22 66 22 142 0 84 -3 101 -28 147 -39 75 -78 115 -149
154 l-63 34 -520 2 c-286 1 -537 -3 -558 -8z"/>
<path d="M1755 2518 c-81 -29 -163 -110 -193 -191 -63 -168 9 -357 166 -434
l57 -28 461 -3 c454 -3 462 -2 520 19 79 30 163 115 193 194 25 67 28 173 6
236 -21 57 -87 144 -134 173 -85 54 -109 56 -580 55 -415 -1 -439 -2 -496 -21z"/>
</g>
</svg>
