<svg version="1.0" xmlns="http://www.w3.org/2000/svg" width="64.000000pt" height="64.000000pt" viewBox="0 0 64.000000 64.000000">
    <g transform="translate(0.000000,64.000000) scale(0.100000,-0.100000)" fill="#eeeeee" stroke="none">
        <path d="M286 538 c-3 -18 -8 -63 -12 -99 l-7 -66 -66 -7 c-123 -12
            -131 -15-131 -46 0 -31 8 -34 131 -46 l66 -7 7 -66 c12 -123 15
            -131 46 -131 31 0 34 8 46 131 l7 66 66 7 c123 12 131 15 131 46
            0 31 -8 34 -131 46 l-66 7 -7 66 c-12 123 -15 131 -46 131 -23 0
            -29 -5 -34 -32z"/>
    </g>
</svg>